<?xml version="1.0" standalone="no"?>
<!DOCTYPE svg PUBLIC "-//W3C//DTD SVG 20010904//EN"
 "http://www.w3.org/TR/2001/REC-SVG-20010904/DTD/svg10.dtd">
<svg version="1.0" xmlns="http://www.w3.org/2000/svg"
 width="1024.000000pt" height="1024.000000pt" viewBox="0 0 1024.000000 1024.000000"
 preserveAspectRatio="xMidYMid meet">
<metadata>
Created by potrace 1.14, written by Peter Selinger 2001-2017
</metadata>
<g transform="translate(0.000000,1024.000000) scale(0.100000,-0.100000)"
fill="#000000" stroke="none">
<path d="M2010 10229 c-926 -94 -1712 -773 -1940 -1677 -70 -276 -65 3 -65
-3432 0 -3435 -5 -3156 65 -3432 199 -790 828 -1419 1618 -1618 276 -70 -3
-65 3432 -65 3435 0 3156 -5 3432 65 790 199 1419 828 1618 1618 70 276 65 -3
65 3432 0 3435 5 3156 -65 3432 -199 790 -829 1420 -1619 1619 -273 68 21 63
-3381 65 -1691 1 -3113 -2 -3160 -7z m3331 -2935 c707 -98 1227 -540 1370
-1164 26 -111 36 -345 20 -463 -54 -402 -275 -757 -606 -972 -44 -29 -99 -62
-123 -74 -28 -14 -40 -26 -35 -34 4 -7 269 -403 589 -882 319 -478 589 -882
599 -897 l17 -28 -704 0 -704 0 -605 982 -604 981 -3 -981 -2 -982 -598 0
-599 0 -6 1508 c-4 829 -7 1848 -7 2265 l0 757 945 0 c799 0 961 -2 1056 -16z"/>
<path d="M4550 5775 l0 -455 278 0 c301 0 345 6 452 57 72 35 169 133 203 204
56 120 57 265 2 387 -31 69 -133 170 -205 205 -107 51 -151 57 -452 57 l-278
0 0 -455z"/>
</g>
</svg>
