<?xml version="1.0" encoding="UTF-8" standalone="no"?>
<!DOCTYPE svg PUBLIC "-//W3C//DTD SVG 1.1//EN" "http://www.w3.org/Graphics/SVG/1.1/DTD/svg11.dtd">
<!-- Created with Vectornator (http://vectornator.io/) -->
<svg height="100%" stroke-miterlimit="10" style="fill-rule:nonzero;clip-rule:evenodd;stroke-linecap:round;stroke-linejoin:round;" version="1.1" viewBox="0 0 31.9 31.9" width="100%" xml:space="preserve" xmlns="http://www.w3.org/2000/svg" xmlns:vectornator="http://vectornator.io" xmlns:xlink="http://www.w3.org/1999/xlink">
<defs/>
<g id="Untitled" vectornator:layerName="Untitled">
<path d="M10.5649 5.77137L21.6295 5.77137L21.6295 25.7709L10.5649 25.7709L10.5649 5.77137Z" fill="#ffffff" fill-rule="nonzero" opacity="1" stroke="none"/>
<path d="M16 0.1C7.2232 0.1 0.1 7.2232 0.1 16C0.1 24.7768 7.2232 31.9 16 31.9C24.7768 31.9 31.9 24.7768 31.9 16C31.9 7.2232 24.7768 0.1 16 0.1ZM16 24.48C14.834 24.48 13.88 23.526 13.88 22.36C13.88 21.194 14.834 20.24 16 20.24C17.166 20.24 18.12 21.194 18.12 22.36C18.12 23.526 17.166 24.48 16 24.48ZM18.12 16C18.12 17.166 17.166 18.12 16 18.12C14.834 18.12 13.88 17.166 13.88 16L13.88 9.64C13.88 8.47718 14.8372 7.52 16 7.52C17.1628 7.52 18.12 8.47718 18.12 9.64L18.12 16Z" fill="#FA5F55" fill-rule="nonzero" opacity="1" stroke="none" vectornator:layerName="path"/>
</g>
</svg>
