<?xml version="1.0" encoding="UTF-8" standalone="no"?>
<!DOCTYPE svg PUBLIC "-//W3C//DTD SVG 1.1//EN" "http://www.w3.org/Graphics/SVG/1.1/DTD/svg11.dtd">
<!-- Created with Vectornator (http://vectornator.io/) -->
<svg height="100%" stroke-miterlimit="10" style="fill-rule:nonzero;clip-rule:evenodd;stroke-linecap:round;stroke-linejoin:round;" version="1.1" viewBox="0 0 5071.36 1350.41" width="100%" xml:space="preserve" xmlns="http://www.w3.org/2000/svg" xmlns:vectornator="http://vectornator.io" xmlns:xlink="http://www.w3.org/1999/xlink">
<defs/>
<g id="Layer-1" vectornator:layerName="Layer 1">
<g fill="#ffffff" opacity="1" stroke="none">
<path d="M734.899 1082L523.961 766.08C601.11 730.924 660.192 648.892 660.192 550.748C660.192 409.635 538.61 294.889 368.688 294.889L69.8597 294.889L70.8362 1082L279.821 1082L279.821 740.201L490.27 1082L734.899 1082ZM278.844 482.877L364.293 482.877C408.239 482.877 449.254 513.15 449.254 561.978C449.254 610.318 408.727 641.568 364.293 641.08L278.844 640.592L278.844 482.877Z"/>
<path d="M1320.35 489.225L1320.35 294.889L810.094 294.889L810.094 1082L1320.35 1082L1320.35 886.197L1016.64 886.197L1016.64 773.404L1266.64 773.404L1266.64 599.088L1016.64 599.088L1016.64 489.225L1320.35 489.225Z"/>
<path d="M1968.3 294.889L1786.17 721.158L1604.53 294.889L1378.45 294.889L1739.78 1090.3L1834.51 1090.3L2197.3 294.889L1968.3 294.889Z"/>
<path d="M2624.55 1082L2853.55 1082L2487.34 285.123L2388.22 285.123L2022.5 1082L2251.01 1082L2291.05 990.201L2585 990.201L2624.55 1082ZM2356.97 837.369L2438.02 650.846L2518.59 837.369L2356.97 837.369Z"/>
<path d="M3691.93 287.564L3354.04 750.455L3016.15 287.564L2932.16 287.564L2932.16 1082L3141.15 1082L3141.15 769.986L3353.55 1068.81L3355.02 1068.81L3566.93 769.986L3566.93 1082L3775.91 1082L3775.91 287.564L3691.93 287.564Z"/>
<path d="M4121.62 885.709L4121.62 294.889L3912.63 294.889L3912.63 1082L4422.89 1082L4422.89 885.709L4121.62 885.709Z"/>
<path d="M5022.01 489.225L5022.01 294.889L4511.75 294.889L4511.75 1082L5022.01 1082L5022.01 886.197L4718.3 886.197L4718.3 773.404L4968.3 773.404L4968.3 599.088L4718.3 599.088L4718.3 489.225L5022.01 489.225Z"/>
</g>
</g>
</svg>
