<?xml version="1.0" standalone="no"?>
<!DOCTYPE svg PUBLIC "-//W3C//DTD SVG 20010904//EN"
 "http://www.w3.org/TR/2001/REC-SVG-20010904/DTD/svg10.dtd">
<svg version="1.0" xmlns="http://www.w3.org/2000/svg"
 width="1024.000000pt" height="1024.000000pt" viewBox="0 0 1024.000000 1024.000000"
 preserveAspectRatio="xMidYMid meet">
<metadata>
Created by potrace 1.14, written by Peter Selinger 2001-2017
</metadata>
<g transform="translate(0.000000,1024.000000) scale(0.100000,-0.100000)"
fill="#000000" stroke="none">
<path d="M2060 10233 c-449 -45 -823 -187 -1170 -446 -122 -91 -346 -315 -437
-437 -228 -306 -368 -639 -430 -1023 -17 -106 -18 -277 -18 -3207 0 -2930 1
-3101 18 -3207 62 -384 202 -717 430 -1023 91 -122 315 -346 437 -437 306
-228 639 -368 1023 -430 106 -17 277 -18 3207 -18 2930 0 3101 1 3207 18 384
62 717 202 1023 430 122 91 346 315 437 437 228 306 368 639 430 1023 17 106
18 277 18 3207 0 2930 -1 3101 -18 3207 -62 384 -202 717 -430 1023 -91 122
-315 346 -437 437 -302 225 -624 362 -1015 430 -94 16 -298 17 -3170 19 -1688
0 -3086 -1 -3105 -3z m5130 -2290 c-17 -32 -55 -98 -85 -148 -59 -97 -105
-179 -117 -208 -4 -9 72 64 170 163 162 165 227 223 172 153 -34 -43 -162
-244 -158 -248 3 -3 68 38 198 125 155 105 210 140 217 140 12 0 -88 -90 -262
-235 -44 -37 -99 -83 -123 -103 -24 -20 -56 -44 -72 -53 -15 -10 -29 -21 -31
-26 -2 -5 -24 -22 -49 -39 -25 -17 -85 -59 -135 -94 -108 -76 -155 -104 -390
-230 -304 -163 -320 -172 -335 -185 -8 -7 -40 -25 -70 -40 -30 -15 -68 -38
-85 -50 -16 -13 -48 -32 -70 -44 -35 -19 -140 -85 -231 -145 -116 -77 -264
-177 -307 -208 -29 -21 -70 -49 -92 -64 -43 -29 -145 -104 -210 -154 -22 -17
-84 -65 -139 -106 -199 -150 -312 -252 -483 -440 -151 -166 -178 -197 -385
-453 -21 -25 -45 -57 -55 -71 -15 -21 -54 -73 -221 -295 -28 -38 -175 -246
-251 -355 -51 -73 -281 -421 -303 -457 -10 -15 -36 -57 -59 -93 -23 -36 -57
-90 -75 -120 -18 -30 -42 -68 -54 -85 -48 -70 -240 -407 -240 -422 0 -6 -9
-22 -21 -37 -27 -34 -92 -37 -109 -5 -24 44 -33 206 -22 358 10 126 82 535 97
550 9 8 11 -4 33 -173 12 -93 30 -187 40 -208 17 -40 17 -40 18 134 0 167 1
177 33 278 31 100 60 167 47 110 -11 -45 -19 -286 -12 -324 13 -69 15 -62 76
300 21 127 48 264 59 305 11 41 32 116 46 167 65 240 233 481 585 840 l115
117 6 -160 c4 -94 13 -186 23 -223 25 -98 74 -154 62 -69 -35 235 -22 470 37
657 27 85 87 211 119 252 72 89 271 308 349 384 170 164 428 372 524 421 17 9
41 24 54 35 13 10 26 17 28 15 2 -2 -13 -60 -33 -128 -20 -68 -40 -142 -45
-164 -8 -41 -11 -206 -2 -170 35 146 88 306 126 381 79 157 100 174 471 376
140 76 180 97 183 94 2 -1 -16 -49 -38 -106 -56 -142 -116 -410 -92 -410 5 0
20 26 33 58 44 106 198 382 253 453 15 20 27 39 27 43 0 4 21 34 46 67 40 50
60 65 138 103 208 101 490 204 676 246 52 12 119 29 147 37 45 12 212 39 266
42 15 1 13 -7 -13 -56z m476 -230 c31 -41 53 -95 54 -135 0 -29 -14 -40 -205
-163 -189 -122 -209 -143 -105 -106 30 10 95 33 144 50 49 17 104 40 123 51
19 11 36 20 39 20 3 0 3 -44 2 -97 l-3 -98 -105 -52 c-114 -57 -323 -136 -435
-165 l-70 -18 75 6 c94 7 222 32 369 73 62 17 115 30 117 29 7 -8 -47 -123
-68 -145 -13 -14 -49 -39 -81 -57 -229 -123 -343 -157 -712 -207 -115 -16 -86
-27 75 -28 142 -1 244 11 414 50 72 16 143 32 158 36 l28 5 -16 -53 c-56 -199
-247 -463 -395 -547 -55 -31 -241 -100 -359 -133 l-65 -19 80 6 c44 3 125 14
180 23 55 10 101 17 103 16 6 -6 -215 -108 -293 -135 -44 -16 -98 -36 -120
-44 l-40 -16 50 6 c28 3 89 12 136 21 48 8 97 13 110 11 22 -4 20 -8 -34 -61
-190 -184 -466 -327 -857 -443 -63 -18 -144 -43 -180 -54 -174 -54 -528 -94
-750 -84 -143 5 -164 4 -270 -20 -174 -39 -189 -46 -85 -38 50 4 164 7 255 6
142 -1 181 -5 277 -27 157 -38 398 -38 668 -2 103 14 190 24 192 21 7 -6 -53
-121 -91 -175 -54 -75 -181 -215 -230 -251 -26 -19 -60 -45 -76 -58 -40 -32
-160 -86 -304 -137 -66 -23 -189 -67 -271 -97 -201 -73 -350 -104 -691 -144
-76 -8 -141 -18 -143 -20 -2 -2 133 -4 300 -3 334 0 332 0 568 77 51 17 90 27
85 23 -18 -15 -134 -91 -139 -91 -4 0 -41 -22 -83 -48 -166 -105 -282 -169
-472 -263 -218 -107 -239 -116 -372 -165 -150 -54 -202 -68 -343 -89 -114 -17
-335 -69 -367 -86 -10 -5 -18 -16 -18 -24 0 -11 7 -12 33 -4 96 27 217 41 390
45 233 4 313 25 578 149 65 30 120 55 124 55 9 0 -130 -110 -184 -146 -171
-114 -369 -210 -531 -258 -290 -86 -354 -106 -439 -140 -52 -21 -104 -44 -115
-52 -22 -15 -201 -21 -194 -6 4 7 8 14 94 161 47 80 173 291 219 364 54 88
300 455 346 517 53 72 265 353 294 390 88 113 236 288 325 385 15 17 74 82
131 145 182 200 441 452 644 625 32 28 77 66 99 86 42 36 171 139 218 174 14
11 59 45 100 76 144 110 443 314 527 360 71 38 282 183 510 349 34 25 84 61
111 80 102 74 264 197 304 230 22 19 56 46 75 59 18 13 41 30 50 37 9 8 57 47
106 86 50 40 109 88 132 107 112 97 150 130 200 179 30 28 58 52 63 52 4 0 20
-16 36 -37z m-361 -168 c-51 -43 -174 -138 -223 -173 -26 -19 -58 -44 -72 -56
-14 -12 -43 -34 -65 -49 -22 -15 -74 -52 -115 -82 -85 -63 -127 -92 -295 -205
-66 -44 -140 -94 -165 -111 -42 -28 -174 -113 -237 -151 -15 -10 -66 -42 -113
-73 -47 -30 -98 -63 -115 -74 -16 -11 -46 -31 -65 -46 -36 -26 -220 -161 -299
-218 -52 -38 -259 -205 -317 -256 -22 -20 -64 -56 -93 -81 -131 -113 -517
-490 -666 -651 -147 -158 -415 -474 -443 -521 -9 -16 -20 -28 -24 -28 -4 0
-25 -26 -47 -57 -22 -32 -76 -105 -120 -163 -118 -155 -126 -166 -201 -275
-37 -55 -78 -113 -89 -130 -21 -29 -73 -110 -163 -250 -41 -64 -136 -219 -188
-305 -19 -32 -99 -171 -182 -315 -19 -33 -47 -97 -62 -143 -15 -45 -30 -82
-33 -82 -16 0 -123 44 -123 50 0 7 45 86 108 190 12 19 38 66 58 104 20 38 44
81 54 95 9 14 43 71 75 126 32 55 72 123 90 150 18 28 45 73 61 100 15 28 36
61 47 75 10 14 49 75 87 135 38 61 81 126 94 145 14 19 57 82 96 140 120 178
159 234 179 260 10 14 47 63 80 110 34 47 73 99 86 115 13 17 34 44 47 62 37
52 132 172 202 258 36 44 90 109 119 144 28 35 66 78 82 96 17 18 57 63 90
101 33 38 137 145 230 239 156 156 208 205 347 320 26 22 64 54 84 70 19 17
48 39 64 50 15 11 72 54 125 95 54 41 121 92 149 112 117 84 164 116 216 151
30 20 71 48 90 62 52 38 227 150 335 214 22 13 63 38 90 56 28 17 95 58 150
90 55 32 118 70 140 84 22 14 60 36 85 49 25 13 68 39 95 57 50 33 75 47 175
106 30 17 78 46 105 64 28 18 95 58 150 90 55 32 134 80 175 107 82 53 100 61
55 23z m435 -3835 c46 -46 11 -63 -180 -89 -235 -32 -409 -61 -465 -77 -27 -8
-117 -29 -200 -48 -82 -19 -204 -50 -270 -69 -258 -75 -745 -254 -941 -347
-35 -16 -67 -30 -71 -30 -7 0 -144 -62 -310 -141 -57 -27 -105 -49 -108 -49
-2 0 -46 -19 -97 -43 -51 -24 -109 -50 -128 -57 -19 -7 -40 -17 -46 -21 -5 -5
-64 -29 -130 -54 -301 -117 -649 -224 -893 -275 -75 -16 -167 -36 -206 -44
-38 -8 -167 -27 -285 -41 -118 -14 -253 -30 -300 -36 -150 -18 -397 -24 -415
-9 -41 34 2 80 75 80 58 0 436 35 600 56 282 35 579 102 915 204 132 40 549
193 570 209 5 4 42 20 80 35 75 30 78 31 345 156 222 104 441 202 505 225 28
10 55 22 61 27 6 4 55 24 110 43 54 19 119 44 144 54 127 54 508 167 745 221
94 21 199 45 235 54 36 8 148 27 250 41 102 14 208 30 235 34 94 16 153 13
175 -9z m-4919 -706 c42 -19 82 -34 88 -34 22 0 22 -28 1 -70 -25 -50 -27 -50
-167 11 l-91 40 20 50 c25 59 26 59 149 3z m-126 -153 c28 -11 64 -26 80 -34
17 -7 40 -18 51 -23 21 -9 21 -11 8 -59 -13 -45 -46 -176 -59 -232 -3 -12 -15
-25 -27 -29 -64 -20 -201 -130 -237 -189 -11 -18 -12 -17 -6 10 16 83 16 193
1 265 l-16 75 57 95 c83 140 83 140 91 140 4 0 30 -9 57 -19z"/>
<path d="M7078 6993 c7 -3 16 -2 19 1 4 3 -2 6 -13 5 -11 0 -14 -3 -6 -6z"/>
<path d="M6618 6003 c7 -3 16 -2 19 1 4 3 -2 6 -13 5 -11 0 -14 -3 -6 -6z"/>
<path d="M2613 2613 c-7 -2 -13 -20 -13 -39 0 -28 5 -36 25 -44 32 -12 54 -3
66 27 18 47 -25 78 -78 56z"/>
</g>
</svg>
